<?xml version="1.0" standalone="no"?>
<!DOCTYPE svg PUBLIC "-//W3C//DTD SVG 20010904//EN"
 "http://www.w3.org/TR/2001/REC-SVG-20010904/DTD/svg10.dtd">
<svg version="1.0" xmlns="http://www.w3.org/2000/svg"
 width="1024.000000pt" height="1024.000000pt" viewBox="0 0 1024.000000 1024.000000"
 preserveAspectRatio="xMidYMid meet">
<metadata>
Created by potrace 1.14, written by Peter Selinger 2001-2017
</metadata>
<g transform="translate(0.000000,1024.000000) scale(0.100000,-0.100000)"
fill="#000000" stroke="none">
<path d="M5908 10215 c-4 -4 -1295 -15 -1795 -15 l-113 0 0 -155 0 -155 -359
0 -360 0 -3 -140 -3 -140 121 0 c66 0 229 -3 362 -7 l242 -6 0 146 0 147 1118
-2 1117 -3 3 -142 3 -143 374 0 375 0 0 -160 0 -160 455 0 455 0 0 165 0 165
-455 0 -454 0 -3 138 -3 137 -372 3 -373 2 0 96 c0 52 -5 126 -11 165 l-12 69
-152 0 c-83 0 -154 -2 -157 -5z"/>
<path d="M2220 9440 l0 -160 -281 -2 -281 -3 1 -167 2 -168 -173 -2 -173 -3
-3 -157 -3 -158 -167 -2 -167 -3 -3 -157 -3 -158 -164 0 -165 0 0 -410 0 -410
-160 0 -160 0 0 -880 0 -880 160 0 160 0 0 169 c0 168 0 170 23 174 l22 4 -22
2 -23 1 0 690 0 691 167 -3 168 -3 -3 409 c-3 388 1 482 18 411 l8 -30 1 28 1
28 158 -2 157 -2 3 161 2 162 173 2 172 3 -4 157 -3 158 279 2 278 3 5 125 c3
69 8 114 11 100 4 -16 6 -5 7 30 0 41 -2 49 -8 30 -7 -22 -8 -20 -7 13 l0 38
241 -2 c133 -1 454 2 714 6 l472 7 0 153 0 152 -287 6 c-157 4 -479 7 -715 7
l-428 0 0 -160z"/>
<path d="M7910 9110 l0 -170 178 -2 177 -3 3 -162 2 -163 160 0 160 0 0 165 0
165 -160 0 -160 0 -2 168 -3 167 -177 3 -178 2 0 -170z"/>
<path d="M2253 9253 c9 -2 25 -2 35 0 9 3 1 5 -18 5 -19 0 -27 -2 -17 -5z"/>
<path d="M2343 9243 c9 -2 23 -2 30 0 6 3 -1 5 -18 5 -16 0 -22 -2 -12 -5z"/>
<path d="M2538 9243 c7 -3 16 -2 19 1 4 3 -2 6 -13 5 -11 0 -14 -3 -6 -6z"/>
<path d="M8742 8603 l-143 -4 3 -157 3 -157 163 -3 162 -2 0 -410 0 -410 -160
0 -160 0 0 -115 0 -115 63 0 c34 0 106 3 160 7 l97 6 0 91 c0 146 -14 134 167
135 l155 2 -4 -46 c-2 -25 0 -45 4 -45 11 0 10 -346 -1 -392 -5 -22 -5 -36 0
-32 5 3 9 -62 9 -150 l0 -156 165 0 165 0 2 -302 3 -303 168 -3 167 -2 0 -158
0 -157 63 1 c34 0 104 1 155 2 l92 2 0 160 0 159 -157 3 -158 3 -3 297 -2 297
-158 3 -157 3 -3 412 -2 413 -168 2 -167 3 -3 408 -2 407 -160 0 -159 0 -3
153 -3 152 -25 0 c-14 1 -89 0 -168 -2z"/>
<path d="M1883 8243 l-1 -68 8 60 c4 33 4 64 0 68 -4 4 -7 -23 -7 -60z"/>
<path d="M3668 8129 l-3 -164 -397 -3 -398 -2 0 -130 0 -130 395 0 395 0 0
125 0 125 1818 -2 1817 -3 3 -122 3 -123 302 -2 302 -3 3 -112 3 -112 117 -3
c64 -2 217 -2 340 0 l222 4 0 119 0 119 -340 0 -340 0 0 125 0 125 -312 2
-313 3 -3 158 -3 157 -927 0 c-510 0 -1322 3 -1804 7 l-877 6 -3 -164z"/>
<path d="M2840 8134 c0 -16 5 -36 11 -44 7 -11 8 -4 3 25 -8 50 -14 58 -14 19z"/>
<path d="M1650 7989 c0 -5 5 -7 10 -4 6 3 10 8 10 11 0 2 -4 4 -10 4 -5 0 -10
-5 -10 -11z"/>
<path d="M2816 7984 c-9 -23 -8 -24 13 -24 28 0 33 14 11 28 -15 9 -19 8 -24
-4z"/>
<path d="M1643 7910 c0 -30 2 -43 4 -27 2 15 2 39 0 55 -2 15 -4 2 -4 -28z"/>
<path d="M1970 7940 c0 -15 7 -20 25 -20 18 0 25 5 25 20 0 15 -7 20 -25 20
-18 0 -25 -5 -25 -20z"/>
<path d="M1911 7904 c0 -11 3 -14 6 -6 3 7 2 16 -1 19 -3 4 -6 -2 -5 -13z"/>
<path d="M993 7735 c0 -33 2 -45 4 -27 2 18 2 45 0 60 -2 15 -4 0 -4 -33z"/>
<path d="M1912 7730 c0 -19 2 -27 5 -17 2 9 2 25 0 35 -3 9 -5 1 -5 -18z"/>
<path d="M2188 7713 c-22 -5 -24 -33 -3 -33 12 0 15 -18 15 -100 l0 -100 -27
-1 -28 -1 30 -8 c17 -4 175 -8 353 -9 l322 -1 0 115 0 115 -150 1 c-82 1 -154
3 -160 4 -5 1 -85 3 -176 4 -107 1 -163 5 -159 11 3 6 5 9 3 9 -2 -1 -11 -3
-20 -6z"/>
<path d="M2080 7650 c0 -5 9 -10 20 -10 11 0 20 5 20 10 0 6 -9 10 -20 10 -11
0 -20 -4 -20 -10z"/>
<path d="M1960 7640 c0 -5 9 -10 20 -10 11 0 20 5 20 10 0 6 -9 10 -20 10 -11
0 -20 -4 -20 -10z"/>
<path d="M1662 7585 c0 -16 3 -50 7 -75 6 -33 9 -37 9 -15 0 17 -3 50 -7 75
-6 33 -9 37 -9 15z"/>
<path d="M1960 7600 c0 -5 9 -10 20 -10 11 0 20 5 20 10 0 6 -9 10 -20 10 -11
0 -20 -4 -20 -10z"/>
<path d="M2040 7540 c0 -18 -7 -20 -60 -20 -52 0 -60 -2 -60 -19 0 -12 -9 -21
-25 -25 -14 -4 -23 -11 -20 -16 4 -6 12 -7 18 -3 16 10 16 10 107 12 l80 1 0
45 c0 38 -3 45 -20 45 -13 0 -20 -7 -20 -20z"/>
<path d="M1895 7520 c-3 -5 -1 -10 4 -10 6 0 11 5 11 10 0 6 -2 10 -4 10 -3 0
-8 -4 -11 -10z"/>
<path d="M992 7480 c0 -14 2 -19 5 -12 2 6 2 18 0 25 -3 6 -5 1 -5 -13z"/>
<path d="M4010 7355 l0 -115 -575 0 -575 0 0 -150 0 -150 -325 0 -325 0 0
-145 0 -145 -270 0 -270 0 0 -295 0 -295 -182 -2 -183 -3 -3 -1012 -2 -1013
182 -2 183 -3 -4 -442 -4 -443 277 0 276 0 0 -185 0 -185 330 0 330 0 0 -170
0 -170 565 0 565 0 0 -185 0 -185 1495 0 1495 0 0 180 0 180 248 0 c137 0 344
3 460 7 l212 6 -2 166 -3 166 278 3 277 2 0 174 c0 172 0 174 23 180 12 3 117
6 233 6 l211 0 6 173 c4 94 7 295 7 445 l0 272 160 0 160 0 0 1145 0 1145
-162 2 -163 3 -3 167 -2 168 -233 2 -232 3 -3 137 -3 138 -272 2 -272 3 -3
153 -3 152 -464 0 -464 0 -3 113 -3 112 -1482 3 -1483 2 0 -115z m635 -275 l0
-145 -172 -3 -173 -2 0 -140 0 -140 -150 0 -150 0 0 -170 0 -170 -165 0 -165
0 0 -300 0 -300 -200 0 -200 0 0 -195 c0 -149 -3 -195 -12 -196 -7 0 -26 -2
-43 -3 -16 -1 -101 -3 -187 -4 l-158 -2 0 -265 0 -265 200 0 200 0 0 -190 0
-190 -200 0 -200 0 0 -385 0 -385 -320 0 -320 0 0 195 0 195 154 0 c131 0 155
2 160 16 3 9 6 94 6 190 l0 174 155 0 155 0 0 180 0 180 -160 0 -160 0 0 -180
0 -180 -159 0 c-143 0 -159 -2 -163 -17 -2 -10 -3 -91 -2 -180 l2 -163 -152 0
-153 0 -7 77 c-3 42 -5 236 -4 432 2 335 3 343 8 141 l6 -215 -1 263 0 262
153 0 152 0 0 365 0 365 165 0 165 0 0 155 0 155 160 0 160 0 0 140 0 140 205
0 205 0 0 165 0 165 195 0 194 0 3 138 3 137 163 3 162 2 0 145 0 145 213 3
c116 1 262 3 322 2 l110 0 0 -145z"/>
<path d="M1664 7370 c0 -52 1 -74 3 -47 2 26 2 68 0 95 -2 26 -3 4 -3 -48z"/>
<path d="M1283 7395 c0 -33 2 -45 4 -27 2 18 2 45 0 60 -2 15 -4 0 -4 -33z"/>
<path d="M8998 7443 c29 -2 74 -2 100 0 26 2 2 3 -53 3 -55 0 -76 -1 -47 -3z"/>
<path d="M9203 7443 c9 -2 23 -2 30 0 6 3 -1 5 -18 5 -16 0 -22 -2 -12 -5z"/>
<path d="M1291 7294 c0 -11 3 -14 6 -6 3 7 2 16 -1 19 -3 4 -6 -2 -5 -13z"/>
<path d="M1883 7030 c0 -30 2 -43 4 -27 2 15 2 39 0 55 -2 15 -4 2 -4 -28z"/>
<path d="M8951 6983 c-1 -25 3 -33 17 -33 11 0 13 3 6 8 -7 4 -14 18 -17 32
-4 21 -4 20 -6 -7z"/>
<path d="M1328 6953 c17 -2 47 -2 65 0 17 2 3 4 -33 4 -36 0 -50 -2 -32 -4z"/>
<path d="M1281 6934 c0 -11 3 -14 6 -6 3 7 2 16 -1 19 -3 4 -6 -2 -5 -13z"/>
<path d="M808 6063 c6 -2 18 -2 25 0 6 3 1 5 -13 5 -14 0 -19 -2 -12 -5z"/>
<path d="M898 6063 c12 -2 32 -2 45 0 12 2 2 4 -23 4 -25 0 -35 -2 -22 -4z"/>
<path d="M0 4665 l0 -1045 318 -2 317 -3 3 -417 2 -418 167 -2 c160 -3 168 -4
169 -23 0 -11 1 -262 2 -557 l2 -538 158 0 159 0 6 302 c4 166 7 415 7 555 l0
253 175 0 175 0 0 -170 0 -169 235 -3 235 -3 0 173 0 172 -235 0 -235 0 0 180
0 180 -180 0 -180 0 0 -175 0 -175 -155 0 -155 0 -2 423 -3 422 -175 1 -175 0
-3 172 -2 172 -162 0 -161 0 5 870 6 870 -159 0 -159 0 0 -1045z"/>
<path d="M637 5704 c-4 -4 -7 -382 -7 -840 l0 -834 163 0 164 0 6 548 c4 301
7 679 7 840 l0 292 -163 0 c-90 0 -167 -3 -170 -6z"/>
<path d="M9590 5143 c0 -313 -3 -691 -7 -840 l-6 -273 166 0 167 0 5 373 c3
204 6 581 8 837 l2 465 -167 3 -168 2 0 -567z"/>
<path d="M10058 3963 l-138 -4 0 -169 0 -170 -175 0 -175 0 0 -425 0 -425
-155 0 -155 0 0 175 0 175 -160 0 -160 0 0 -175 0 -175 160 0 160 0 0 -555 0
-555 -165 0 -165 0 0 -165 0 -165 165 0 165 0 0 165 0 165 154 0 c116 0 156 3
165 13 7 10 12 175 13 553 l3 539 157 3 158 3 2 422 3 422 163 3 162 2 0 175
0 175 -22 -2 c-13 -1 -85 -4 -160 -5z"/>
<path d="M8600 2595 l0 -175 163 2 162 3 3 173 2 172 -165 0 -165 0 0 -175z"/>
<path d="M2210 2250 l0 -170 172 -2 171 -3 -2 -82 -2 -83 160 0 161 0 0 -115
0 -115 395 0 395 0 0 165 0 165 -402 2 -403 3 -3 107 -3 107 -152 3 -152 3 -3
93 -3 92 -164 0 -165 0 0 -170z"/>
<path d="M8258 2328 l-3 -93 -173 -3 -174 -2 4 -103 3 -102 -307 -3 -308 -2 0
-170 0 -170 295 0 295 0 0 110 0 110 185 0 185 0 2 48 c1 26 1 65 0 88 l-2 41
62 7 c33 3 108 6 164 6 l104 0 0 165 0 165 -165 0 -164 0 -3 -92z"/>
<path d="M3670 1507 l0 -167 1810 0 1810 0 0 160 0 160 -1307 0 c-720 0 -1534
3 -1810 7 l-503 6 0 -166z"/>
<path d="M1310 1500 l0 -160 175 0 175 0 0 160 0 160 -175 0 -175 0 0 -160z"/>
<path d="M1662 1118 l3 -213 180 2 c99 1 215 2 258 2 l77 1 0 210 0 210 -260
0 -260 0 2 -212z"/>
<path d="M8480 1110 l0 -210 230 0 230 0 0 210 0 210 -230 0 -230 0 0 -210z"/>
<path d="M2220 715 l0 -175 253 -2 c138 -2 282 -2 319 0 l68 2 2 -167 3 -168
570 0 570 0 4 25 c2 14 0 89 -4 168 l-7 142 -564 0 -564 0 0 175 0 175 -325 0
-325 0 0 -175z"/>
<path d="M7690 710 l0 -170 -525 0 -525 0 0 -165 0 -165 530 0 530 0 0 160 0
160 385 0 385 0 0 175 0 175 -390 0 -390 0 0 -170z"/>
<path d="M4018 205 c-5 -5 -8 -53 -8 -107 l0 -98 1315 0 1315 0 0 100 0 100
-1122 0 c-618 0 -1206 3 -1308 6 -102 4 -188 3 -192 -1z"/>
<path d="M10080 80 l0 -80 80 0 80 0 0 80 0 80 -80 0 -80 0 0 -80z"/>
</g>
</svg>
