<?xml version="1.0" standalone="no"?>
<!DOCTYPE svg PUBLIC "-//W3C//DTD SVG 20010904//EN"
 "http://www.w3.org/TR/2001/REC-SVG-20010904/DTD/svg10.dtd">
<svg version="1.0" xmlns="http://www.w3.org/2000/svg"
 width="640.000000pt" height="640.000000pt" viewBox="0 0 640.000000 640.000000"
 preserveAspectRatio="xMidYMid meet">
<metadata>
Created by potrace 1.14, written by Peter Selinger 2001-2017
</metadata>
<g transform="translate(0.000000,640.000000) scale(0.100000,-0.100000)"
fill="#000000" stroke="none">
<path d="M1397 5243 c-2 -4 -5 -35 -6 -68 -1 -33 -6 -64 -11 -69 -5 -4 -39 -9
-77 -10 l-68 -1 -3 -78 -3 -79 -67 4 -67 3 -3 -72 -3 -73 -74 0 -75 0 0 -160
0 -160 58 -1 c31 -1 62 -1 69 0 6 1 14 -3 18 -8 3 -6 6 -210 5 -453 0 -244 3
-539 6 -656 l7 -213 51 1 c28 1 56 1 63 1 8 -1 13 -24 15 -67 l3 -66 387 1
387 2 3 -66 3 -67 160 -1 160 -2 5 -464 5 -464 73 2 72 2 0 -139 c0 -118 2
-141 16 -146 9 -3 108 -6 220 -6 l204 0 0 -140 0 -140 -65 0 -65 0 0 -85 0
-85 65 0 64 0 3 73 3 72 65 5 65 5 3 147 3 148 169 0 170 0 0 -75 0 -75 70 0
70 0 0 -245 0 -245 205 0 205 0 0 245 0 245 65 0 c45 0 65 4 66 13 1 6 0 103
-1 215 l-2 202 123 1 c195 2 174 -8 174 79 l0 75 -147 3 -148 3 0 54 0 55 145
0 145 0 0 -55 0 -55 198 0 c109 0 201 2 203 4 2 2 2 32 1 65 l-4 61 -124 0
-123 0 -3 137 -3 138 -72 0 -73 0 0 -82 0 -81 -64 -7 c-36 -4 -69 -4 -75 0 -7
4 -11 94 -11 276 l0 269 -47 1 c-27 1 -52 2 -58 4 -5 1 -16 3 -22 3 -10 2 -13
60 -13 257 l0 254 68 3 67 3 3 393 2 393 73 -2 72 -2 3 451 2 452 68 0 c38 0
71 2 73 4 2 2 2 34 -1 71 l-5 66 -285 1 -285 0 -3 -71 -3 -71 -64 0 -65 0 0
-75 0 -75 -60 0 -60 0 0 -75 0 -75 -310 0 -309 0 -3 73 -3 72 -65 3 -65 3 0
72 0 72 -65 0 -65 0 -3 -73 -3 -73 -72 3 -72 3 -3 67 -3 67 78 3 78 3 -1 67
c0 38 -2 70 -5 72 -2 2 -69 5 -149 7 l-145 4 0 -155 0 -155 68 3 67 3 0 -70 0
-70 -72 -3 -73 -3 0 -223 c0 -215 -1 -223 -20 -228 -11 -3 -85 -3 -165 -2
l-145 3 -3 58 -3 57 81 0 80 0 0 176 0 176 -75 -4 -75 -3 0 68 0 67 -47 1
c-95 2 -87 -4 -93 79 l-5 75 -72 0 c-40 0 -134 -2 -208 -3 l-135 -2 0 -75 0
-75 200 0 200 0 1 -22 c0 -13 0 -44 -1 -70 l-1 -48 75 0 76 0 0 -160 0 -159
-72 -3 -73 -3 -3 -67 -3 -68 -155 0 -155 0 3 -67 3 -68 78 -3 77 -3 0 -384 0
-385 -224 0 c-169 0 -227 3 -233 13 -4 6 -9 94 -11 195 -4 225 0 242 69 242
l46 0 7 77 c3 42 6 177 6 300 l0 223 -60 0 -60 0 0 -70 0 -70 -80 0 -80 0 0
70 0 70 63 2 c34 0 69 1 77 2 12 1 16 18 18 74 l3 72 -81 0 -80 0 0 -75 0 -75
-70 0 -70 0 0 160 0 160 70 0 70 0 0 70 0 70 75 0 75 0 0 80 0 80 105 0 106 0
-3 72 -3 73 -97 3 c-53 2 -98 -1 -101 -5z m2833 -218 l0 -77 -132 6 c-73 3
-136 6 -140 6 -9 0 -11 124 -2 132 3 3 66 7 140 7 l134 2 0 -76z m-1305 -155
l0 -75 -57 -3 -58 -3 0 81 0 81 58 -3 57 -3 0 -75z m1023 3 l3 -73 -66 0 -65
0 0 75 0 76 63 -3 62 -3 3 -72z m-931 -89 c-3 -3 -12 -4 -19 -1 -8 3 -5 6 6 6
11 1 17 -2 13 -5z m795 -216 l3 -223 63 -3 62 -3 0 -129 c0 -98 3 -129 12
-128 8 2 15 -13 19 -37 l6 -40 2 41 c1 36 4 41 24 39 12 -1 35 -3 50 -4 l28
-1 -3 -282 c-1 -156 -6 -286 -11 -289 -4 -3 -9 -16 -10 -27 -1 -12 -5 -23 -9
-23 -4 -1 -12 -3 -18 -4 -5 -1 -16 -4 -22 -5 -7 -2 7 -6 32 -10 43 -7 42 -7
-22 -8 l-66 -2 -7 98 c-5 54 -4 123 2 155 6 40 6 60 -1 66 -18 12 -89 31 -98
25 -5 -4 -9 -29 -8 -58 1 -28 1 -102 1 -163 l-1 -113 -75 0 -75 0 0 -65 0 -64
-342 -3 c-189 -2 -425 -2 -525 0 l-183 3 0 154 0 155 145 0 145 0 0 115 0 115
65 0 65 0 0 65 0 65 -65 0 -65 0 0 55 0 55 -65 0 -65 0 0 125 0 125 65 0 65 0
0 70 0 70 66 0 65 0 -3 83 -3 82 253 -3 252 -3 0 -80 0 -80 68 3 67 3 3 140
c1 77 4 146 7 153 3 7 24 12 54 12 l51 0 2 -222z m-1172 -428 l0 -60 75 0 75
0 0 -84 c0 -117 1 -116 -81 -116 l-69 0 0 100 0 100 -150 0 -150 0 0 60 0 60
150 0 150 0 0 -60z m-302 -544 c2 -16 1 -44 -3 -63 l-6 -33 -84 0 -85 0 0 65
0 66 88 -3 87 -3 3 -29z m-11 -194 c9 -6 12 -40 10 -120 l-2 -112 -87 0 -88 0
0 120 0 120 78 0 c42 0 83 -4 89 -8z m-487 -132 c0 -16 7 -20 38 -20 26 0 41
-6 49 -19 10 -15 10 -21 0 -24 -7 -3 -4 -6 6 -6 13 -1 17 7 17 37 0 33 3 38
24 40 22 1 24 -3 28 -43 l3 -45 -85 -2 -85 -2 90 -5 c184 -12 56 -24 -306 -29
l-369 -5 0 72 0 71 295 0 c288 0 295 0 295 -20z m1400 -168 c0 -40 4 -62 13
-65 7 -3 77 -6 155 -6 l141 -2 3 63 3 63 73 3 72 3 0 -61 0 -60 60 0 60 0 0
60 0 60 60 0 60 0 0 -140 0 -140 70 0 70 0 0 -245 0 -245 -32 -2 -33 -1 33 -4
c17 -2 32 -8 32 -12 0 -10 -219 -15 -243 -5 -15 6 -17 30 -17 265 l0 259 -59
0 -59 0 -7 -252 c-4 -139 -5 -287 -3 -328 l3 -75 122 -3 121 -3 4 -221 c1
-122 1 -277 -1 -345 l-3 -123 -64 0 -64 0 0 -159 c0 -144 -2 -160 -17 -164
-15 -4 -58 -3 -85 2 -4 0 -9 74 -10 164 l-3 162 -62 -1 c-70 -2 -70 -2 -65 82
l4 54 59 0 60 0 -3 66 -3 67 -175 1 c-96 1 -331 3 -522 4 l-348 2 0 70 c0 49
-4 70 -12 71 -7 1 -36 2 -65 3 -28 0 -55 5 -59 9 -5 5 -10 271 -12 592 l-4
585 203 2 c112 2 282 4 377 6 l172 3 0 -59z"/>
<path d="M3960 5069 c0 -5 5 -7 10 -4 6 3 10 8 10 11 0 2 -4 4 -10 4 -5 0 -10
-5 -10 -11z"/>
<path d="M3980 5049 c0 -5 5 -7 10 -4 6 3 10 8 10 11 0 2 -4 4 -10 4 -5 0 -10
-5 -10 -11z"/>
<path d="M3190 4155 l0 -65 45 0 45 0 0 -70 0 -70 140 0 140 0 0 135 0 135
-185 0 -185 0 0 -65z"/>
<path d="M4035 4054 c-10 -8 -14 -14 -8 -14 6 0 18 -3 27 -6 10 -4 16 -1 16 9
0 23 -13 27 -35 11z"/>
<path d="M3972 3960 c0 -14 2 -19 5 -12 2 6 2 18 0 25 -3 6 -5 1 -5 -13z"/>
<path d="M3972 3895 c0 -16 2 -22 5 -12 2 9 2 23 0 30 -3 6 -5 -1 -5 -18z"/>
<path d="M3981 3814 c0 -11 3 -14 6 -6 3 7 2 16 -1 19 -3 4 -6 -2 -5 -13z"/>
<path d="M3981 3474 c0 -11 3 -14 6 -6 3 7 2 16 -1 19 -3 4 -6 -2 -5 -13z"/>
<path d="M3953 2795 c0 -44 2 -61 4 -37 2 23 2 59 0 80 -2 20 -4 1 -4 -43z"/>
<path d="M3580 1576 c0 -19 4 -21 48 -16 l47 5 -42 3 c-24 2 -43 7 -43 11 0 4
23 5 50 1 28 -4 47 -3 43 1 -5 3 -29 9 -55 12 -44 4 -48 3 -48 -17z"/>
<path d="M2500 1290 l0 -260 150 0 150 0 0 90 0 90 -57 1 c-98 2 -98 2 -99 29
-1 14 -2 89 -3 168 l-1 142 -70 0 -70 0 0 -260z"/>
<path d="M6210 50 l0 -50 95 0 95 0 0 50 0 50 -95 0 -95 0 0 -50z"/>
</g>
</svg>
